<?xml version="1.0" encoding="UTF-8" standalone="no"?>
<!-- Created with Inkscape (http://www.inkscape.org/) -->

<svg
   xmlns:dc="http://purl.org/dc/elements/1.1/"
   xmlns:cc="http://creativecommons.org/ns#"
   xmlns:rdf="http://www.w3.org/1999/02/22-rdf-syntax-ns#"
   xmlns:svg="http://www.w3.org/2000/svg"
   xmlns="http://www.w3.org/2000/svg"
   xmlns:sodipodi="http://sodipodi.sourceforge.net/DTD/sodipodi-0.dtd"
   xmlns:inkscape="http://www.inkscape.org/namespaces/inkscape"
   width="210mm"
   height="297mm"
   viewBox="0 0 744.09448819 1052.3622047"
   id="svg2"
   version="1.1"
   inkscape:version="0.91pre3 r13670"
   sodipodi:docname="icon.svg">
  <defs
     id="defs4" />
  <sodipodi:namedview
     id="base"
     pagecolor="#ffffff"
     bordercolor="#666666"
     borderopacity="1.0"
     inkscape:pageopacity="0.0"
     inkscape:pageshadow="2"
     inkscape:zoom="0.7"
     inkscape:cx="222.93609"
     inkscape:cy="443.31488"
     inkscape:document-units="px"
     inkscape:current-layer="layer1"
     showgrid="false"
     inkscape:window-width="1920"
     inkscape:window-height="1005"
     inkscape:window-x="-9"
     inkscape:window-y="-9"
     inkscape:window-maximized="1" />
  <metadata
     id="metadata7">
    <rdf:RDF>
      <cc:Work
         rdf:about="">
        <dc:format>image/svg+xml</dc:format>
        <dc:type
           rdf:resource="http://purl.org/dc/dcmitype/StillImage" />
        <dc:title></dc:title>
      </cc:Work>
    </rdf:RDF>
  </metadata>
  <g
     inkscape:label="Layer 1"
     inkscape:groupmode="layer"
     id="layer1">
    <g
       id="g4167"
       transform="translate(-14.285714,-55.714286)">
      <path
         style="fill:#505050"
         d="m 236.69643,758.2087 c -10.37535,-1.32585 -19.18725,-4.39781 -33.44075,-11.65795 -17.77132,-9.05197 -24.21697,-17.79958 -29.80763,-40.45296 -1.51295,-6.13047 -3.91487,-13.39631 -5.33761,-16.14631 -2.36571,-4.57266 -2.59009,-7.19989 -2.6254,-30.73975 -0.0277,-18.48253 0.39194,-26.26013 1.48845,-27.58539 0.83989,-1.0151 2.61177,-7.4322 3.93751,-14.26025 3.20574,-16.5107 6.30708,-24.93389 12.58332,-34.17606 6.6334,-9.76811 14.51996,-15.02586 31.0728,-20.71535 10.07502,-3.46295 13.4067,-4.13701 15.33834,-3.10322 1.3572,0.72635 3.07642,0.94438 3.82048,0.48452 1.7565,-1.08557 34.33075,-7.88387 44.84549,-9.35932 4.46875,-0.62707 11.21875,-1.71949 15,-2.42762 3.78125,-0.70811 13.30656,-1.87302 21.16735,-2.58868 7.86079,-0.71567 17.42329,-1.6937 21.25,-2.17342 l 6.95765,-0.87221 -0.0135,-11.86662 c -0.007,-6.52664 -0.40833,-17.77288 -0.8909,-24.99163 -0.48256,-7.21875 -0.89836,-13.48135 -0.924,-13.91687 -0.0256,-0.43554 -3.64507,-1.02103 -8.04323,-1.30108 -7.12102,-0.45342 -8.55598,-1.01454 -13.10513,-5.12442 -4.69329,-4.2401 -5.55214,-4.55444 -10.56606,-3.8672 -7.11917,0.97578 -10.50716,-0.91174 -11.54251,-6.43062 -0.77045,-4.10686 -1.1047,-4.35981 -5.76096,-4.35981 -9.08685,0 -10.89636,-1.76779 -20.40371,-19.93327 l -6.25,-11.94173 -14.9064,0 -14.90639,0 -1.06953,-4.07288 c -1.74306,-6.6377 0.0776,-8.21643 14.62773,-12.68401 7.29806,-2.24085 13.08602,-4.62382 12.86213,-5.2955 -0.22389,-0.67167 -3.73907,-2.57545 -7.81151,-4.23061 -8.66612,-3.52218 -18.32953,-9.93216 -24.37246,-16.16689 -3.52423,-3.63608 -5.19399,-4.42511 -9.36453,-4.42511 -6.29196,0 -13.30351,-1.93479 -14.63951,-4.03966 -0.55344,-0.87194 -1.01486,-3.91579 -1.02539,-6.7641 -0.0131,-3.53569 -0.64059,-5.41724 -1.97785,-5.9304 -1.27734,-0.49015 -1.82089,-1.9499 -1.5625,-4.19623 0.31914,-2.77457 1.73352,-4.11085 7.27121,-6.86968 8.61817,-4.29352 28.98702,-10.0431 52.47425,-14.81209 21.39539,-4.34426 80.60542,-12.90998 101.90075,-14.74163 25.00736,-2.15093 55.35786,-2.87713 58.13474,-1.391 3.00558,1.60854 3.23291,5.85232 0.47664,8.89797 -1.86023,2.05552 -1.81262,2.48058 0.625,5.5795 3.20056,4.06886 3.32194,6.4404 0.48984,9.56983 -2.05467,2.2704 -1.65786,3.342 9.0625,24.47343 l 11.21128,22.09906 18.125,0.625 c 19.2011,0.66211 22.10564,1.4465 27.20874,7.34795 11.68533,13.51341 14.24325,41.11227 5.18236,55.91577 -4.43465,7.24525 -10.40806,10.11159 -26.00176,12.47693 -13.3967,2.03209 -14.6122,2.03469 -20.625,0.044 -4.67633,-1.54818 -7.87238,-1.84815 -11.9209,-1.11885 l -5.53157,0.99644 0.25397,8.73135 c 0.13969,4.80225 0.82547,14.1838 1.52398,20.84787 0.93535,8.92358 0.89062,12.72405 -0.16976,14.42198 -1.13908,1.82397 -0.94731,3.3399 0.91825,7.25848 1.94348,4.08224 2.90117,4.87728 5.44737,4.52217 1.69912,-0.23699 29.24557,-0.70403 61.21432,-1.03788 41.31796,-0.4315 60.25881,-0.18744 65.50451,0.84404 21.34025,4.1962 30.48058,13.70365 37.25341,38.7497 2.09082,7.73185 2.64572,14.5475 3.16599,38.88669 1.47743,69.11683 -8.62042,93.59058 -43.55125,105.55333 -23.6443,8.09745 -112.40945,23.7068 -174.24766,30.64145 -71.33154,7.99925 -129.5446,11.4147 -150,8.80075 z m 226.37079,-60.05687 c 11.61581,-5.13823 22.10143,-18.13441 26.6409,-33.01953 8.30514,-27.23288 -4.89256,-57.34847 -27.23163,-62.13935 -9.34437,-2.00399 -22.19583,0.37144 -29.83821,5.51524 -7.77312,5.23181 -14.45745,14.04955 -13.69074,18.06036 0.31869,1.66713 -1.37547,9.01654 -3.7648,16.33204 -3.59548,11.00841 -4.24452,14.60674 -3.76566,20.87739 1.32254,17.31866 13.58631,33.02836 28.81933,36.9171 5.62592,1.4362 16.59756,0.21401 22.83081,-2.54325 z m -26.54438,-16.14205 c -6.39721,-4.63411 -8.81536,-8.47446 -11.20195,-17.79025 -4.19996,-16.39406 2.91852,-35.32851 16.1054,-42.8388 7.24498,-4.12621 12.30596,-4.82764 18.65921,-2.58607 10.2231,3.60691 17.11768,12.98625 19.96006,27.15355 2.75316,13.72258 0.87854,22.31356 -5.34218,24.48212 -1.99757,0.69635 -3.63195,1.81763 -3.63195,2.49171 0,0.67409 -3.38129,3.7971 -7.51396,6.94003 -6.9368,5.27549 -8.07456,5.71441 -14.81245,5.71441 -6.04236,0 -8.1459,-0.61385 -12.22218,-3.5667 z m 88.23959,-76.52637 c 8.58168,-1.39551 11.4376,-4.12082 11.53261,-11.00519 0.14424,-10.45175 -3.82777,-11.62918 -28.26756,-8.37928 -10.17814,1.35344 -12.82826,2.1569 -14.6875,4.45295 -2.83093,3.49606 -2.94153,11.00752 -0.21929,14.89405 1.98044,2.82748 2.43172,2.89585 13.4375,2.03579 6.26353,-0.48948 14.45544,-1.38872 18.20424,-1.99832 z M 381.79867,414.32648 c 2.62132,0 2.19872,-1.77016 -2.08445,-8.73123 -3.58777,-5.83083 -7.40693,-8.02972 -9.12323,-5.25268 -0.80106,1.29615 3.19681,13.05674 4.85544,14.28328 0.6875,0.5084 1.99913,0.64903 2.91474,0.3125 0.9156,-0.33653 2.46247,-0.61187 3.4375,-0.61187 z"
         id="path4173"
         inkscape:connector-curvature="0" />
      <path
         style="fill:#3e3e3e"
         d="m 240.44643,755.70475 c -29.00509,-3.11954 -42.05658,-15.48876 -50.04081,-47.42487 -1.66082,-6.64313 -4.10224,-14.8909 -5.42537,-18.3284 -1.32313,-3.4375 -2.80871,-9.48437 -3.30128,-13.4375 -0.49258,-3.95313 -1.35311,-7.1875 -1.91228,-7.1875 -1.67685,0 -4.94526,-3.79713 -4.94526,-5.74522 0,-0.99917 1.36749,-2.33658 3.03886,-2.97203 3.79256,-1.44193 5.07818,-8.43286 4.10554,-22.32511 -1.83907,-26.26751 11.20564,-52.21948 30.9806,-61.63475 8.98581,-4.27834 12.63414,-4.46981 16.47186,-0.86447 2.80489,2.63507 3.28115,2.6714 17.58057,1.34123 15.71117,-1.46149 73.44773,-8.73632 76.57257,-9.64819 1.03125,-0.30092 8.0625,-1.16833 15.625,-1.92759 21.08916,-2.11727 25.05666,-3.83112 29.32624,-12.66812 2.19114,-4.53513 2.18516,-4.60951 -0.42699,-5.31059 -1.45709,-0.39106 -7.57113,-0.71871 -13.58675,-0.7281 -6.01563,-0.01 -10.9375,-0.26616 -10.9375,-0.57061 0,-0.30445 1.20016,-2.58766 2.66701,-5.0738 2.14709,-3.63904 2.40666,-5.09169 1.33148,-7.45145 -1.09122,-2.39496 -0.89309,-3.3316 1.08298,-5.11994 1.69527,-1.53418 2.41853,-3.83815 2.41853,-7.70424 0,-5.05467 -0.22191,-5.44506 -2.65606,-4.67249 -3.80574,1.20789 -4.80274,-1.17697 -4.8248,-11.54116 -0.0168,-7.84038 0.33055,-9.23655 2.71211,-10.90466 2.71862,-1.90418 2.71014,-1.92185 -1.83485,-3.82087 -2.51136,-1.04931 -5.61543,-1.90784 -6.89791,-1.90784 -3.77636,0 -3.88998,-1.08174 -0.73654,-7.01252 1.64343,-3.09088 2.98805,-6.74689 2.98805,-8.12451 0,-2.33867 -0.18419,-2.37572 -2.77814,-0.55884 -3.7229,2.60761 -8.38328,2.48558 -9.22735,-0.24163 -0.37236,-1.20312 -1.552,-4.15625 -2.62143,-6.5625 -2.65207,-5.96724 -3.3452,-25.55206 -0.97398,-27.52 2.51746,-2.08931 6.76211,-0.38537 12.4759,5.00821 2.75,2.5959 6.36173,5.41923 8.02604,6.27407 2.59354,1.3321 3.26352,1.22948 4.6875,-0.71793 0.91381,-1.2497 1.66146,-3.00841 1.66146,-3.90826 0,-2.67419 1.71341,-1.87009 4.3267,2.0305 2.35804,3.51959 2.79936,3.65275 11.55143,3.48534 9.4261,-0.18032 12.55432,1.11516 11.20208,4.63905 -0.85053,2.21647 -7.58375,2.6562 -12.43425,0.81205 -2.40185,-0.91319 -3.46911,-0.61869 -5.23591,1.44477 -2.58882,3.02353 -4.87799,10.43379 -3.77467,12.219 1.15077,1.86198 7.76266,1.47941 11.96193,-0.69212 2.04774,-1.05893 7.50418,-2.23007 12.12543,-2.60254 11.16344,-0.89975 14.69185,-2.39848 17.71677,-7.52534 2.15004,-3.64405 2.25055,-4.3942 0.66999,-5.00071 -1.02273,-0.39246 -1.8595,-1.77838 -1.8595,-3.07983 0,-2.09821 0.99956,-2.36626 8.82377,-2.36626 9.71282,0 10.48309,1.43349 1.92784,3.58773 l -5.54089,1.39521 1.31776,4.07102 c 3.25812,10.06563 2.84421,9.68058 10.63222,9.89044 16.32847,0.44001 26.07339,-1.00942 29.25832,-4.35181 2.29928,-2.41295 2.52259,-3.83859 1.99207,-12.71759 -0.32862,-5.5 -0.19228,-11.6875 0.30297,-13.75 l 0.90048,-3.75 2.82415,6.10235 c 2.45782,5.31083 2.72057,7.3375 2.02567,15.625 -0.72966,8.70195 -0.63325,9.31354 1.11859,7.09624 2.9563,-3.74179 2.58135,-26.70309 -0.58295,-35.69859 -1.33011,-3.78125 -2.43675,-7.96375 -2.45919,-9.29444 -0.0225,-1.33069 -1.27086,-3.72876 -2.77426,-5.32905 -3.50989,-3.73611 -1.65483,-5.98989 3.92205,-4.765 3.95364,0.86836 13.8114,9.85915 13.8114,12.59673 0,0.80003 1.041,2.7961 2.31334,4.43569 1.27233,1.63958 2.05836,3.71675 1.74672,4.6159 -0.31164,0.89916 0.38556,2.68697 1.54933,3.97292 1.2271,1.35593 1.80361,3.32216 1.37241,4.68074 -0.40894,1.28846 0.0516,3.43015 1.02359,4.75931 1.10546,1.51182 1.37432,3.15057 0.71807,4.37679 -2.42474,4.53067 3.22693,7.43621 11.52924,5.92722 3.43974,-0.6252 6.53029,-0.86049 6.8679,-0.52289 0.84466,0.84468 -8.24982,3.28055 -12.28005,3.2891 -1.80644,0.004 -3.93093,0.78595 -4.72109,1.73804 -1.14615,1.38101 -0.79795,1.89137 1.72194,2.52381 1.73724,0.43602 4.56485,0.43982 6.2836,0.009 4.23136,-1.062 9.375,0.37093 9.375,2.6117 0,1.00505 -1.54688,2.17773 -3.4375,2.60594 -1.89062,0.42821 -5.125,1.23195 -7.1875,1.78609 -3.54834,0.95333 -3.46431,1.01356 1.5625,1.12024 2.92187,0.062 5.3125,0.59874 5.3125,1.19274 0,2.28668 -9.68776,7.5111 -16.25,8.76328 -12.57346,2.39924 -18.90348,2.57494 -24.48593,0.67965 -3.97273,-1.34877 -7.49521,-1.57885 -13.27347,-0.86697 -7.21558,0.88895 -7.89646,1.23418 -8.23902,4.17746 -0.27597,2.37108 -1.49932,3.61554 -4.6875,4.7684 -3.22318,1.1652 -4.31408,2.28969 -4.31408,4.4466 0,1.58781 -0.84375,5.27837 -1.875,8.20125 -2.52374,7.15303 -2.36031,10.34555 0.625,12.20991 1.8972,1.18481 2.5,2.91503 2.5,7.17568 0,7.11154 -3.06345,7.79096 -4.34429,0.9635 -0.92816,-4.94755 -2.4956,-3.93964 -3.34494,2.15091 -0.40996,2.93989 -0.0361,3.16203 6.3121,3.75 7.80994,0.72337 10.5326,3.31211 7.90634,7.51742 -1.3822,2.21324 -1.22626,2.66042 1.25911,3.61088 1.56018,0.59664 3.90064,2.26595 5.20104,3.7096 2.20208,2.44465 3.48894,2.60464 18.75,2.33095 l 16.38564,-0.29385 7.5,4.62311 c 4.125,2.5427 8.97524,4.97633 10.7783,5.40805 6.92527,1.65816 49.0087,-2.92584 58.97677,-6.42415 3.71136,-1.3025 5.27699,-1.34285 7.13288,-0.18384 1.90165,1.18761 3.66671,1.02149 8.81427,-0.82954 5.41097,-1.94577 6.61462,-2.03802 7.55462,-0.57908 0.93814,1.45605 1.29429,1.46236 2.2121,0.0391 0.69676,-1.08039 2.0822,-1.38262 3.81581,-0.83238 2.20309,0.69922 2.43713,1.20697 1.22794,2.66396 -1.85775,2.23845 -2.0386,2.10806 6.9097,4.98135 8.20029,2.63311 10.28833,5.10579 4.83922,5.73065 -3.3058,0.37908 -3.53405,0.79569 -3.89441,7.10849 -0.26831,4.70034 0.3503,8.26539 2.06849,11.92067 1.88527,4.01075 2.47931,8.09058 2.57269,17.66919 0.15963,16.37388 -0.45839,25.04225 -2.24404,31.47478 -1.15268,4.15236 -1.12376,5.82586 0.13631,7.88862 1.35911,2.22493 1.27078,2.86215 -0.58815,4.24236 -1.26382,0.93837 -2.1875,3.26082 -2.1875,5.50018 0,2.21112 -1.03028,4.83652 -2.39859,6.11219 -1.31922,1.22991 -2.78767,3.78797 -3.26323,5.68459 -0.54169,2.16032 -1.94592,3.71974 -3.75943,4.17491 -1.59211,0.3996 -3.86709,1.80095 -5.05549,3.11412 -1.1884,1.31316 -3.19855,2.38758 -4.467,2.38758 -1.26844,0 -3.43126,1.125 -4.80626,2.5 -1.375,1.375 -2.53565,2.07812 -2.57924,1.5625 -0.0436,-0.51563 -0.58449,0.31876 -1.20201,1.85418 -0.72708,1.8078 -1.80051,2.53162 -3.04576,2.05377 -2.70783,-1.0391 -2.39034,-4.57722 0.57701,-6.43037 1.375,-0.8587 2.5,-2.6815 2.5,-4.05067 0,-1.65608 0.83688,-2.48941 2.5,-2.48941 1.375,0 2.5,-0.5625 2.5,-1.25 0,-0.6875 -0.77344,-1.25 -1.71875,-1.25 -0.94531,0 -3.42946,-0.34214 -5.52033,-0.76032 -3.30761,-0.66152 -3.85578,-0.37728 -4.21875,2.1875 -0.3826,2.70349 -1.00766,2.94782 -7.5417,2.94782 -3.91849,0 -7.70482,0.58007 -8.41406,1.28906 -2.0478,2.04705 -3.15557,9.33594 -1.41889,9.33594 0.81402,0 1.12992,0.56647 0.70202,1.25882 -1.1326,1.8326 3.04278,3.07885 4.71448,1.40715 1.05464,-1.05457 1.03319,-1.41591 -0.084,-1.41591 -0.83334,0 -1.5,-1.66666 -1.5,-3.75 0,-3.42649 0.36422,-3.75 4.22195,-3.75 5.53238,0 8.16309,2.92395 5.3888,5.9895 -2.15986,2.38661 -1.59513,3.8864 2.26425,6.01316 3.13113,1.72545 3.89849,6.2932 1.51834,9.03793 -0.99417,1.14642 -2.17508,3.63129 -2.62427,5.52191 -0.65152,2.74224 -1.52822,3.4375 -4.33456,3.4375 -1.93481,0 -3.93934,0.4215 -4.4545,0.93666 -0.85193,0.85194 -6.32824,2.42638 -18.23001,5.24115 -2.40625,0.56908 -3.6491,1.09938 -2.76189,1.17844 1.73782,0.15486 9.1014,5.02606 10.47266,6.92793 1.05946,1.46941 14.19884,-1.37237 16.36612,-3.53964 0.86679,-0.86679 3.1805,-1.36109 5.14159,-1.09846 4.01762,0.53802 28.37198,-3.93755 32.00401,-5.88135 2.90051,-1.55232 3.77751,-1.59094 3.77751,-0.16638 0,0.60409 -1.82812,1.783 -4.0625,2.6198 -2.23437,0.8368 -8,3.09521 -12.8125,5.01871 -4.8125,1.92349 -16.48285,5.5434 -25.93411,8.04423 -22.86255,6.0495 -24.77504,6.88494 -15.31589,6.69052 4.125,-0.0847 8.17368,-0.66376 8.99705,-1.28662 0.90358,-0.68351 2.36896,-0.64453 3.69644,0.0984 1.85135,1.03607 1.41666,1.4365 -2.74705,2.53059 -32.34004,8.49784 -98.42263,19.82234 -147.20721,25.22675 -68.06415,7.54021 -127.01453,11.06656 -147.73923,8.83757 z m 218.7775,-43.92277 c 0.41289,-0.66808 2.12249,-0.87039 3.79911,-0.44958 2.2068,0.55388 3.04839,0.2523 3.04839,-1.09236 0,-1.0216 0.77505,-2.50067 1.72232,-3.28685 1.35604,-1.12541 1.86794,-0.87256 2.40703,1.18894 1.9009,7.26905 13.61982,-2.27394 14.28165,-11.62989 0.15731,-2.2237 0.86044,-4.23457 1.5625,-4.4686 0.70207,-0.23402 1.2765,-1.18917 1.2765,-2.12256 0,-0.93338 0.65111,-2.09946 1.4469,-2.59129 0.97699,-0.60381 1.23306,-0.0765 0.78846,1.62368 -1.02404,3.91593 1.20104,6.62301 5.44378,6.62301 2.75366,0 3.98553,-0.69072 4.45867,-2.5 0.75169,-2.87444 0.95866,-2.93771 4.10381,-1.25449 3.98682,2.13368 5.74154,0.44588 5.22018,-5.02107 -0.44323,-4.64763 -0.26045,-4.97444 2.7819,-4.97444 3.4875,0 4.11139,-1.14491 1.85397,-3.40233 -1.58822,-1.58822 -5.20435,-0.68605 -4.14172,1.0333 1.6098,2.60472 -4.39209,0.84198 -7.4105,-2.17642 -2.2651,-2.26511 -3.29545,-2.71574 -3.29545,-1.44126 0,1.0198 -1.125,3.15132 -2.5,4.73671 l -2.5,2.88252 0,-3.87915 c 0,-2.35373 0.83698,-4.34755 2.12845,-5.07028 1.709,-0.9564 1.82912,-1.55181 0.60959,-3.02127 -2.15452,-2.59603 1.20945,-5.19701 5.37072,-4.1526 3.60969,0.90598 4.3776,-1.67702 1.26624,-4.25922 -1.50199,-1.24654 -2.27669,-1.22274 -3.89418,0.11962 -1.75446,1.45608 -1.94957,1.35324 -1.48826,-0.78443 0.292,-1.35312 1.20063,-2.31959 2.01918,-2.14772 1.94423,0.40825 1.90413,-1.56928 -0.0743,-3.66071 -0.92489,-0.97775 -1.6835,-5.77985 -1.85903,-11.76786 -0.26965,-9.19876 -0.79565,-11.09425 -5.80075,-20.90314 -3.02732,-5.93287 -7.25175,-12.2575 -9.38761,-14.0547 -2.91704,-2.45452 -3.70734,-3.9691 -3.17591,-6.08646 0.95561,-3.80744 -4.82956,-10.71463 -8.97414,-10.71463 -2.61602,0 -2.92882,0.43379 -2.25336,3.125 l 0.78432,3.125 -10.0767,0 c -5.54217,0 -11.36878,0.50599 -12.94801,1.12442 -1.57922,0.61843 -5.36196,1.79598 -8.4061,2.61677 -3.9799,1.07312 -7.40696,3.40997 -12.199,8.31828 -7.78882,7.97778 -9.80197,12.16914 -12.97612,27.01612 -1.28763,6.02283 -2.98865,12.16048 -3.78007,13.63924 -2.11307,3.94832 -0.34186,17.89751 3.2798,25.83004 4.39077,9.61714 9.36968,15.33316 19.08548,21.91107 8.11162,5.49185 9.00962,5.79613 17.21635,5.83367 l 8.65835,0.0396 -3.4375,2.56466 c -1.89063,1.41057 -3.4375,2.9891 -3.4375,3.50787 0,1.4106 8.53377,1.45941 9.4025,0.0538 z m -17.5275,-30.16423 c -8.8565,-4.89835 -13.39221,-13.85322 -13.50668,-26.66627 -0.10112,-11.31511 3.48429,-19.75811 11.62339,-27.37129 6.78398,-6.34561 12.45838,-8.03913 19.33356,-5.77012 9.70263,3.20216 15.7781,11.41238 18.1911,24.58294 2.60976,14.24437 1.12865,19.87088 -5.56106,21.12587 -4.12158,0.77323 -7.08877,3.35956 -14.75557,12.86163 -2.43874,3.02251 -10.86663,3.70295 -15.32474,1.23725 z m 2.6263,-31.72448 c 0.73402,-2.92457 -0.0316,-5.45318 -1.2747,-4.21006 -1.41083,1.41083 -2.1277,7.39327 -0.88593,7.39327 0.74894,0 1.72122,-1.43245 2.16063,-3.18321 z m -21.3763,49.43321 c -0.4249,-0.6875 -1.0206,-1.25 -1.32378,-1.25 -0.30317,0 -0.55122,0.5625 -0.55122,1.25 0,0.6875 0.5957,1.25 1.32377,1.25 0.72808,0 0.97613,-0.5625 0.55123,-1.25 z m 111.875,-21.28454 c 0,-0.62535 -0.84053,-0.81446 -1.86782,-0.42025 -1.02731,0.39421 -1.55093,1.22949 -1.16363,1.85616 0.81007,1.31073 3.03145,0.25853 3.03145,-1.43591 z m -15.01914,-5.35174 c 0.0105,-0.5562 -0.54336,-0.66362 -1.23086,-0.23872 -0.6875,0.4249 -1.24139,1.72372 -1.23086,2.88628 0.0165,1.82158 0.18661,1.85458 1.23086,0.23872 0.66645,-1.03125 1.22034,-2.33008 1.23086,-2.88628 z m 18.76914,-19.40538 c 0,-1.75907 -1.40716,-2.56957 -3.24002,-1.86623 -0.96009,0.36842 -1.4344,1.17342 -1.05403,1.78886 0.87246,1.41168 4.29405,1.47332 4.29405,0.0774 z m -17.78646,-7.94272 c -0.77259,-2.31777 -3.46354,-2.7022 -3.46354,-0.49478 0,1.08854 0.89062,1.97916 1.97916,1.97916 1.08855,0 1.75651,-0.66798 1.48438,-1.48438 z m 3.90137,-35.04066 c 10.68748,-1.76054 15.53889,-5.44742 16.93075,-12.86667 1.01095,-5.38882 -2.00988,-12.35987 -6.90381,-15.93162 -3.11846,-2.27596 -3.87223,-2.28969 -21.25,-0.3873 -20.29497,2.22177 -23.18376,3.4996 -26.016,11.50797 -2.25361,6.37222 -0.96468,13.47747 3.20048,17.64262 3.04254,3.04255 3.56488,3.13069 13.97966,2.35887 5.95045,-0.44099 14.97697,-1.48673 20.05892,-2.32387 z M 414.82143,606.1277 c 0,-0.30317 -0.5625,-0.55122 -1.25,-0.55122 -0.6875,0 -1.25,0.5957 -1.25,1.32378 0,0.72807 0.5625,0.97612 1.25,0.55122 0.6875,-0.4249 1.25,-1.0206 1.25,-1.32378 z m 17.91585,-7.51893 c 4.28146,-1.64295 1.84686,-3.03229 -5.31361,-3.03229 -8.68284,0 -11.35224,0.80814 -11.35224,3.43681 0,1.5935 1.23771,1.78997 7.29085,1.15729 4.00997,-0.41912 8.22872,-1.12194 9.375,-1.56181 z M 351.77335,464.95148 c -0.36728,-1.375 -0.67547,-3.20313 -0.68486,-4.0625 -0.0376,-3.44215 -2.28826,-1.26586 -3.4584,3.34411 -0.87855,3.46125 -0.83621,5.31584 0.14374,6.29579 1.91108,1.91107 4.89013,-2.24326 3.99953,-5.5774 z m -21.95192,-18.75 c -0.85586,-1.03125 -1.75084,-1.875 -1.98883,-1.875 -0.23798,0 -0.10899,0.84375 0.28679,1.875 0.39574,1.03125 1.2907,1.875 1.98883,1.875 0.73163,0 0.61015,-0.79426 -0.28679,-1.875 z m 133.94444,-19.21895 c -1.28564,-4.29105 -9.5849,-13.68225 -10.91551,-12.35165 -0.25219,0.2522 1.83655,4.83846 4.64164,10.19169 3.59138,6.85375 5.49202,9.34132 6.42469,8.40865 0.93266,-0.93266 0.88805,-2.78124 -0.15082,-6.24869 z M 169.02501,686.62289 c -1.6637,-2.57812 -2.16982,-49.83017 -0.55108,-51.44891 3.50516,-3.50516 4.26469,1.50446 3.98718,26.29824 -0.26322,23.5177 -1.00171,28.92308 -3.4361,25.15067 z M 303.09524,472.50317 c -1.11402,-1.70022 -4.25812,-3.74575 -7.03724,-4.5784 -4.93426,-1.47834 -5.00698,-1.58478 -4.09222,-5.98919 0.51222,-2.46625 0.80153,-6.80563 0.64287,-9.64304 -0.32332,-5.78282 2.23917,-9.28768 5.07172,-6.93687 2.36196,1.96026 11.89266,21.42893 12.80555,26.15831 0.7135,3.6965 0.50661,4.0625 -2.2964,4.0625 -1.89276,0 -3.85701,-1.185 -5.09428,-3.07331 z m -21.15527,-19.15759 c -3.79879,-4.1976 -1.97334,-10.2691 3.08748,-10.2691 5.05032,0 6.55763,11.53327 1.60002,12.24252 -1.41294,0.20214 -3.52232,-0.6859 -4.6875,-1.97342 z m 103.67738,-2.14941 c -1.22797,-3.20008 -0.9589,-4.36969 1.0053,-4.36969 2.78918,0 3.69692,2.53757 1.64262,4.59188 -1.63597,1.63597 -1.94482,1.61004 -2.64792,-0.22219 z m -43.2052,-30.16326 c -1.4249,-1.81147 -2.59072,-4.38788 -2.59072,-5.72537 0,-1.33749 -2.63886,-7.3085 -5.86413,-13.26892 -3.22527,-5.96043 -7.0467,-14.21214 -8.49206,-18.33714 -2.49194,-7.11188 -3.03155,-7.71274 -10.42709,-11.6108 -4.28953,-2.26094 -8.34311,-3.77461 -9.00793,-3.36372 -0.66484,0.41088 -1.20879,2.28837 -1.20879,4.17218 0,2.72165 -0.83438,3.73477 -4.0625,4.93274 -2.3594,0.87559 -5.58746,3.73203 -7.70008,6.81361 -5.27866,7.69976 -12.46157,13.52242 -18.29963,14.83414 -6.07364,1.36465 -7.95287,0.50779 -6.8135,-3.10673 1.29023,-4.0931 3.23777,-13.55562 3.50842,-17.04642 l 0.24229,-3.125 -21.45532,0 c -11.80042,0 -21.86187,-0.4052 -22.35877,-0.90044 -0.49689,-0.49523 -4.18933,-0.55699 -8.20541,-0.13722 -5.03783,0.52656 -7.89165,0.27381 -9.20373,-0.81513 -2.88704,-2.39602 -2.40432,-3.2527 4.03573,-7.16221 14.04752,-8.52772 54.47875,-18.46925 82.97916,-20.40352 22.6823,-1.53942 57.51064,-5.77317 72.90925,-8.86291 11.26976,-2.26127 13.75994,-2.35677 26.25,-1.00668 16.10613,1.74095 18.77444,2.7057 16.94386,6.12617 -0.81191,1.51706 -3.70762,2.86579 -8.1191,3.78161 -10.48996,2.1777 -10.25438,3.72447 0.86729,5.69444 2.55364,0.45233 5.13585,1.46669 5.73826,2.25415 0.60242,0.78745 1.80895,5.65049 2.68119,10.80674 1.2323,7.2847 3.38531,12.78401 9.65628,24.66442 4.43871,8.40919 8.60448,15.61953 9.25729,16.02298 1.20114,0.74235 5.20971,9.44545 4.60293,9.99355 -0.1809,0.16341 -3.24441,-0.30757 -6.8078,-1.04664 -5.12122,-1.06217 -9.57417,-0.8899 -21.25,0.82208 -8.12411,1.19121 -21.23986,2.9646 -29.14611,3.94087 -7.90625,0.97628 -17.4049,2.35503 -21.10811,3.06389 -11.04685,2.11458 -14.63314,1.70495 -17.55117,-2.00472 z m 42.99532,-5.64277 c 1.48166,-1.35895 -3.47817,-11.00687 -8.41023,-16.35966 -3.21405,-3.48821 -3.64012,-3.61685 -6.25,-1.88685 -3.49304,2.3154 -4.1978,5.48146 -1.82826,8.21335 0.99917,1.15198 2.2187,3.77885 2.71005,5.83751 0.49136,2.05865 1.4455,4.40825 2.1203,5.22135 1.33126,1.60408 9.5824,0.87814 11.65814,-1.0257 z m -120.58604,6.51012 c 0,-0.64693 0.5625,-1.52388 1.25,-1.94878 2.36732,-1.46309 1.24135,-4.417 -2.56633,-6.73259 l -3.81632,-2.32085 5.12695,-2.67231 c 5.52099,-2.87771 7.4874,-2.5038 11.78051,2.24005 1.97375,2.18096 2.13325,3.14453 0.95031,5.74078 -0.78183,1.71596 -2.45107,3.11992 -3.70941,3.11992 -1.25834,0 -3.37977,0.82586 -4.7143,1.83525 -2.82862,2.13946 -4.30141,2.39232 -4.30141,0.73853 z"
         id="path4171"
         inkscape:connector-curvature="0" />
      <path
         style="fill:#282828"
         d="m 364.19643,746.72945 c 2.75,-0.69868 6.6875,-1.58477 8.75,-1.96908 2.0625,-0.38433 4.3125,-1.39505 5,-2.24605 0.6875,-0.851 3.41685,-1.95268 6.06523,-2.44817 9.74703,-1.82357 2.96965,-2.20498 -15.38348,-0.86574 -17.91955,1.30761 -39.61351,1.72158 -36.93175,0.70475 0.6875,-0.26068 14.75,-2.18593 31.25,-4.27833 16.5,-2.0924 36.75,-4.66575 45,-5.71856 18.49209,-2.35985 51.40155,-5.60704 55.625,-5.48854 1.71875,0.0483 -3.7957,1.6708 -12.25434,3.60572 -14.9602,3.42217 -22.36894,6.2032 -11.93645,4.48063 3.24308,-0.53549 5.4939,-0.35492 6.01128,0.4822 0.45489,0.73601 2.48136,1.3382 4.50328,1.3382 7.89473,0 2.99278,2.04748 -11.38531,4.75547 -14.8863,2.80373 -51.76606,7.19753 -69.93846,8.33237 -8.09895,0.50576 -8.69444,0.41255 -4.375,-0.68487 z M 248.1375,743.38563 c -0.31982,-0.51746 11.03761,-1.01904 25.23873,-1.11461 17.26136,-0.11613 23.33411,0.15072 18.3202,0.80517 -9.83449,1.28367 -42.81204,1.51794 -43.55893,0.30944 z m 222.02247,-19.81436 c 0.41536,-0.41537 1.49348,-0.45977 2.39583,-0.0986 0.99717,0.39903 0.70098,0.69523 -0.75521,0.7552 -1.3177,0.0543 -2.05599,-0.24116 -1.64062,-0.65652 z m 12.16146,-2.33089 c 3.78125,-0.99439 8.28125,-1.79615 10,-1.7817 2.93149,0.0246 2.96339,0.0916 0.51522,1.08176 -1.43537,0.58051 -5.93537,1.38229 -10,1.7817 l -7.39022,0.72623 6.875,-1.80799 z m -81.875,-8.66659 c -17.22138,-5.46069 -35.21598,-22.91955 -41.98549,-40.73546 -3.81311,-10.03526 -6.3692,-31.07614 -4.72711,-38.91187 0.77513,-3.69874 1.61204,-9.19119 1.8598,-12.20546 0.24777,-3.01426 1.1047,-6.26873 1.90427,-7.23216 0.79959,-0.96344 2.22858,-6.09097 3.17554,-11.39454 3.19834,-17.91257 3.67661,-19.79723 5.78961,-22.81396 1.1596,-1.65557 2.10838,-4.08859 2.10838,-5.40669 0,-1.31811 0.98437,-3.20345 2.1875,-4.18965 2.00365,-1.64237 1.92485,-1.72636 -0.9375,-0.99926 -1.71875,0.4366 -6.86788,0.73146 -11.4425,0.65525 -16.02329,-0.26692 -43.28959,4.08385 -44.44383,7.09174 -0.83073,2.16487 -2.60521,2.08179 -4.91725,-0.23025 -1.03125,-1.03125 -3.61606,-1.875 -5.74405,-1.875 -2.12797,0 -3.5563,-0.31275 -3.17405,-0.69499 1.11844,-1.11844 25.41868,-5.1919 40.34668,-6.76334 7.5625,-0.79608 19.375,-2.59515 26.25,-3.99792 6.875,-1.40278 14.1875,-2.81231 16.25,-3.1323 2.0625,-0.31999 4.875,-1.07251 6.25,-1.67226 3.98104,-1.73645 15.71995,-3.82805 17.00996,-3.03078 0.64683,0.39975 2.912,0.34555 5.03373,-0.1205 3.56261,-0.78247 3.70215,-1.00282 1.82428,-2.88069 -1.70927,-1.70927 -2.44427,-1.77678 -4.61113,-0.42356 -1.79279,1.11962 -3.0501,1.21781 -4.12893,0.32245 -3.54927,-2.94562 -19.4939,-5.36263 -38.23409,-5.79581 -12.1178,-0.2801 -19.5211,-0.94216 -19.79718,-1.77041 -0.24255,-0.72766 1.29586,-2.84708 3.41868,-4.70983 4.52714,-3.9725 4.72757,-4.81156 1.35968,-5.69228 -3.55286,-0.9291 -3.09439,-2.83832 1.09869,-4.57514 5.1644,-2.13916 6.6238,-6.11298 3.69823,-10.07001 -1.2789,-1.72982 -2.75551,-5.66532 -3.28135,-8.74558 -0.65175,-3.8178 -1.64195,-5.73255 -3.11082,-6.01542 -1.78605,-0.34397 -2.15475,0.5632 -2.15475,5.30168 0,8.97717 -2.0512,6.68294 -2.98233,-3.33568 -0.91716,-9.86823 0.2807,-12.19763 6.27247,-12.19763 7.58124,0 2.32827,-4.27191 -7.10851,-5.78093 -2.74287,-0.43859 -5.30404,-1.31037 -5.69149,-1.93728 -0.38745,-0.6269 0.67961,-2.94365 2.37126,-5.14832 3.38051,-4.40571 10.34697,-7.13347 18.21828,-7.13347 2.67797,0 11.82746,-1.73904 20.33218,-3.86451 11.54717,-2.88585 16.33576,-4.68814 18.90888,-7.11676 2.1515,-2.03068 3.88408,-2.80931 4.61276,-2.07299 1.48249,1.49802 4.58548,22.70195 3.48349,23.80395 -0.45278,0.45276 -4.92244,1.2342 -9.9326,1.73653 -16.9042,1.69484 -33.48439,7.8146 -33.48439,12.35912 0,1.70023 2.03241,5.59884 4.59044,8.80542 0.70937,0.88924 6.65956,-5.23996 6.65956,-6.85992 0,-0.83785 0.84375,-1.84714 1.875,-2.24288 1.03125,-0.39572 1.875,-1.56111 1.875,-2.58975 0,-1.92856 4.71331,-5.16156 5.85722,-4.01765 0.35372,0.35372 0.18522,1.38367 -0.37445,2.28878 -1.5981,2.58452 -1.77921,16.10535 -0.29322,21.89001 0.97029,3.77716 2.06652,5.35084 3.91841,5.625 3.64475,0.53958 4.02564,3.01747 0.63065,4.10276 -6.38139,2.03997 6.90699,3.1013 20.60468,1.64569 10.49077,-1.11482 13.80458,-1.09493 14.98955,0.09 1.19502,1.19503 1.14407,1.75439 -0.23759,2.6083 -2.36568,1.46206 -12.28848,3.00244 -17.15651,2.6633 -2.16494,-0.15082 -4.30752,0.32648 -4.76128,1.06066 -0.45375,0.7342 -0.0169,1.3349 0.97071,1.3349 0.98764,0 2.54729,0.90559 3.46588,2.01242 1.37696,1.65913 3.70792,1.92329 13.27805,1.50473 10.14401,-0.44367 11.6079,-0.24845 11.6079,1.54797 0,1.2376 -1.98979,2.83727 -5,4.01971 -5.95341,2.33857 -6.18363,4.24367 -1.0079,8.34097 3.56861,2.82505 4.78907,3.03294 16.49334,2.80953 43.99117,-0.83973 61.44601,-1.34661 71.38956,-2.07313 7.5082,-0.54857 10.62224,-0.41485 9.3626,0.40209 -1.03808,0.67323 -8.91308,1.56849 -17.5,1.98946 -8.58693,0.42098 -17.01885,1.0197 -18.7376,1.3305 -1.71875,0.31079 -10.4375,0.8362 -19.375,1.16756 -15.28535,0.56672 -43.39175,3.48102 -53.125,5.50843 -2.97131,0.61891 -4.21803,1.49739 -3.88574,2.73803 0.26909,1.00471 0.4466,2.78557 0.39446,3.95748 -0.067,1.50639 0.88846,2.12523 3.26074,2.11192 5.66615,-0.0319 20.4694,2.69951 25.16099,4.64239 8.99035,3.72309 11.31955,4.86582 11.31955,5.55342 0,0.38675 -4.04415,1.67379 -8.98701,2.86007 -12.41518,2.97964 -23.14611,8.69913 -29.32784,15.63144 -4.72816,5.30226 -5.02046,6.01049 -3.28574,7.96114 1.69195,1.90253 2.28437,1.94448 5.31673,0.37638 1.87694,-0.9706 4.32922,-3.16366 5.44954,-4.87347 1.51366,-2.31014 3.56831,-3.32105 7.99812,-3.93518 3.27866,-0.45452 8.36335,-1.9526 11.29931,-3.32905 5.52417,-2.58985 9.03689,-2.34417 9.03689,0.63205 0,1.06652 -2.69331,2.31806 -7.12071,3.30887 -5.41884,1.21267 -8.33168,2.7808 -12.1875,6.5611 -2.78673,2.73216 -5.69858,5.33895 -6.47078,5.79287 -2.82408,1.66009 -7.74145,13.59351 -9.83122,23.85836 -2.36334,11.60858 -4.0783,16.2638 -6.75749,18.34309 -1.32399,1.02751 -1.56216,2.91581 -0.94016,7.45378 1.07092,7.81327 4.52801,14.41701 12.17612,23.25887 3.37247,3.89885 6.13174,7.41448 6.13174,7.8125 0,0.39804 -1.62667,0.7237 -3.61482,0.7237 -7.71897,0 -19.09755,-13.48804 -22.67189,-26.875 -0.91783,-3.4375 -2.92789,-8.64042 -4.4668,-11.56206 l -2.79804,-5.31206 -0.78856,3.59026 c -1.3849,6.30541 1.79671,20.24101 7.11432,31.16106 4.02989,8.27565 6.4757,11.54073 12.07703,16.12246 3.86307,3.15989 9.83626,7.06278 13.27376,8.67309 l 6.25,2.92783 -10,-0.0714 c -5.5,-0.0393 -12.25,-0.78486 -15,-1.65686 z m -1.875,-96.51985 c 0,-1.03125 -0.5625,-1.52736 -1.25,-1.10246 -0.6875,0.4249 -1.25,1.61629 -1.25,2.64754 0,1.03125 0.5625,1.52736 1.25,1.10246 0.6875,-0.4249 1.25,-1.61629 1.25,-2.64754 z m 20,-61.72746 c 0,-0.6875 -0.5625,-1.25 -1.25,-1.25 -0.6875,0 -1.25,0.5625 -1.25,1.25 0,0.6875 0.5625,1.25 1.25,1.25 0.6875,0 1.25,-0.5625 1.25,-1.25 z m 89.26489,144.53881 c -0.9382,-2.44491 0.34007,-4.53881 2.77082,-4.53881 1.2272,0 1.74834,0.95025 1.48873,2.71459 -0.48503,3.29627 -3.24164,4.47684 -4.25955,1.82422 z m 9.09449,-1.5961 c -1.7173,-1.71731 -0.82655,-4.3697 1.32812,-3.95475 1.20313,0.2317 2.1875,1.21045 2.1875,2.17499 0,1.97358 -2.20536,3.09001 -3.51562,1.77976 z m 7.89062,-3.46355 c 0,-1.08854 0.89062,-1.97916 1.97916,-1.97916 2.20742,0 1.82299,2.69095 -0.49479,3.46354 -0.81641,0.27213 -1.48437,-0.39583 -1.48437,-1.48438 z m 7.70834,-1.97916 c 0.62918,-1.88756 2.6393,-2.08209 3.22916,-0.3125 0.28646,0.85937 -0.41666,1.5625 -1.5625,1.5625 -1.14584,0 -1.89584,-0.5625 -1.66666,-1.25 z m -19.70339,-1.7371 c -1.1369,-2.96271 1.45417,-5.55377 3.50397,-3.50397 1.17858,1.17857 1.0518,1.96606 -0.57906,3.59692 -1.95066,1.95068 -2.14305,1.94455 -2.92491,-0.093 z m 7.66083,-1.94691 c -1.09906,-1.7783 0.30248,-3.81599 2.62464,-3.81599 1.09519,0 1.72257,0.8782 1.48873,2.08391 -0.4869,2.51059 -2.9827,3.56153 -4.11337,1.73208 z m -331.06057,-3.81599 c -2.94206,-17.61346 -3.02241,-50.15691 -0.1645,-66.6287 2.82841,-16.30181 11.03373,-31.62045 19.85874,-37.07461 3.31017,-2.04579 4.79588,-2.27314 8.29569,-1.2694 2.34485,0.67248 10.72914,1.22271 18.63176,1.22271 l 14.3684,0 -4.53962,3.22999 c -4.23938,3.01636 -4.49694,3.57441 -3.89418,8.4375 0.35499,2.86414 1.4954,7.05921 2.53425,9.32239 1.6886,3.6787 1.68645,4.27495 -0.0203,5.625 -1.05,0.83057 -2.28229,4.16558 -2.7384,7.41116 -0.70398,5.00927 -1.70334,6.64813 -6.61311,10.84487 -4.81675,4.11724 -5.52573,5.2548 -4.24035,6.80359 1.25758,1.51529 1.0568,2.31314 -1.08404,4.30763 -1.95393,1.82036 -2.41614,3.29001 -1.80302,5.73288 0.58678,2.3379 0.33494,3.28682 -0.87353,3.29134 -1.76897,0.006 -8.65828,6.2907 -11.64135,10.61865 -1.41781,2.05704 -3.5591,2.61074 -12.08491,3.125 l -10.36178,0.625 -0.39437,10.63379 c -0.2169,5.84858 -0.86917,12.31733 -1.44949,14.375 l -1.05513,3.74121 -0.73077,-4.375 z m 339.14479,0.625 c 0,-1.03125 0.84375,-1.875 1.875,-1.875 1.03125,0 1.875,0.84375 1.875,1.875 0,1.03125 -0.84375,1.875 -1.875,1.875 -1.03125,0 -1.875,-0.84375 -1.875,-1.875 z m -360.44158,-8.9386 c -1.01933,-12.05865 -1.05177,-35.84776 -0.0524,-38.45199 2.09305,-5.45441 2.99402,1.68175 2.99402,23.71437 0,24.70237 -1.4747,32.09078 -2.94158,14.73762 z m 367.94158,7.6886 c 0,-1.03125 0.84375,-1.875 1.875,-1.875 1.03125,0 1.875,0.84375 1.875,1.875 0,1.03125 -0.84375,1.875 -1.875,1.875 -1.03125,0 -1.875,-0.84375 -1.875,-1.875 z m 8.36731,-1.42435 c -0.99866,-0.99866 0.13024,-2.95065 1.70646,-2.95065 0.64693,0 1.17623,0.84375 1.17623,1.875 0,1.93301 -1.47495,2.48337 -2.88269,1.07565 z m -100.5302,-9.80389 c -4.35322,-1.89246 -9.07487,-8.43577 -9.08244,-12.58652 -0.004,-2.08391 0.83055,-2.58844 4.45019,-2.69105 2.45018,-0.0695 5.54393,-1.11187 6.875,-2.31647 4.48289,-4.05694 2.20138,-11.43302 -3.74001,-12.09139 -2.3134,-0.25635 -3.21335,0.38476 -3.78449,2.69599 -0.41212,1.66778 -1.52104,3.28957 -2.46426,3.60398 -1.3437,0.4479 -1.56054,-0.57949 -1.00169,-4.74603 1.26426,-9.42571 11.48315,-17.3741 20.22796,-15.73356 10.55328,1.97981 17.38477,14.6624 14.46155,26.84771 -1.71542,7.15072 -7.64043,14.77245 -13.33278,17.15087 -5.09552,2.12903 -7.46212,2.10398 -12.60903,-0.13353 z m -267.02378,-7.48172 c -0.88156,-2.29732 1.4621,-3.8896 3.18667,-2.16504 1.33426,1.33426 0.37457,4 -1.44004,4 -0.57337,0 -1.35935,-0.82574 -1.74663,-1.83496 z m 296.69364,-1.60254 c 0.025,-3.3602 2.87183,-10.4337 3.8183,-9.48723 1.36921,1.3692 -0.91886,10.42473 -2.63402,10.42473 -0.65519,0 -1.18811,-0.42187 -1.18428,-0.9375 z m -22.19447,-64.89035 c -0.85938,-0.34676 -1.5625,-1.47205 -1.5625,-2.50064 0,-1.4443 0.92506,-1.68396 4.0625,-1.05251 7.93356,1.59675 8.92549,2.05445 7.04016,3.24851 -1.85194,1.17291 -6.98235,1.33674 -9.54016,0.30464 z m -206.5625,-6.67215 c 0,-0.6875 0.87695,-1.25 1.94877,-1.25 1.07182,0 1.60113,0.5625 1.17623,1.25 -0.4249,0.6875 -1.30185,1.25 -1.94877,1.25 -0.64693,0 -1.17623,-0.5625 -1.17623,-1.25 z m 280.9375,-38.32785 c 0.85937,-0.34676 2.26562,-0.34676 3.125,0 0.85937,0.34676 0.15625,0.63049 -1.5625,0.63049 -1.71875,0 -2.42188,-0.28373 -1.5625,-0.63049 z m 10.9375,-0.42215 c 0.4249,-0.6875 1.30185,-1.25 1.94877,-1.25 0.64693,0 1.17623,0.5625 1.17623,1.25 0,0.6875 -0.87695,1.25 -1.94878,1.25 -1.07182,0 -1.60112,-0.5625 -1.17622,-1.25 z M 411.31337,483.99299 c -1.83609,-2.21235 -3.96543,-12.03112 -3.09887,-14.28936 0.55245,-1.43966 2.01863,-1.61792 7.08922,-0.86194 10.58436,1.57804 22.10831,0.68473 27.52015,-2.13332 3.53683,-1.84169 5.12511,-2.13903 5.77853,-1.08178 0.66624,1.07802 1.57078,1.09959 3.47063,0.0829 5.8287,-3.11943 6.7531,-25.1578 1.65534,-39.46461 -3.19299,-8.9611 -3.18889,-8.91288 -0.57548,-6.75888 2.89511,2.38616 10.60445,19.66355 10.80496,24.21499 0.0909,2.06281 -0.28931,7.68806 -0.84488,12.50056 -0.84204,7.29403 -0.73194,8.4801 0.66167,7.128 1.14699,-1.11282 1.86799,-6.57152 2.29679,-17.38895 0.53828,-13.57902 0.86265,-15.4793 2.33763,-13.69404 1.11338,1.34762 1.93993,6.86872 2.36227,15.77913 0.54432,11.4841 0.30891,14.22624 -1.45208,16.91384 -1.15595,1.7642 -1.74607,3.78308 -1.3114,4.48641 0.43469,0.70334 -0.76148,2.71696 -2.65816,4.47474 -3.19361,2.95975 -4.01037,3.13063 -11.05087,2.31217 -8.56505,-0.99569 -21.19382,-0.99946 -25.39585,-0.007 -1.60784,0.37951 -3.11649,1.94639 -3.55454,3.69173 -0.53854,2.14572 -1.91467,3.2639 -4.70654,3.82428 -2.17,0.43557 -4.85042,1.04389 -5.95649,1.35183 -1.10606,0.30795 -2.62347,-0.17806 -3.37203,-1.08003 z m -81.49194,-13.1722 c 0,-0.65395 0.77285,-3.08582 1.71744,-5.40416 2.47572,-6.07626 1.82158,-19.12019 -1.12198,-22.37279 -1.99685,-2.2065 -2.03092,-2.46007 -0.23817,-1.77212 1.15066,0.44155 3.30886,2.77155 4.79599,5.17777 4.75437,7.69273 2.82158,24.02448 -2.97529,25.14087 -1.1979,0.23068 -2.17799,-0.11562 -2.17799,-0.76957 z m -31.25,-3.26343 c -3.22174,-1.16272 -4.35146,-2.29092 -4.28571,-4.27991 0.40516,-12.25673 0.66011,-13.94923 2.09821,-13.92913 1.86126,0.026 10.9375,14.85982 10.9375,17.87577 0,2.45919 -2.58638,2.5577 -8.75,0.33327 z m -16.70204,-16.35588 c -1.07485,-2.80101 0.48923,-5.80028 2.79683,-5.36318 1.15631,0.21903 2.20046,1.85963 2.42573,3.81137 0.31215,2.7044 -0.12075,3.42681 -2.05376,3.42681 -1.34711,0 -2.77306,-0.84375 -3.1688,-1.875 z m 61.9852,-30.06736 c -1.53074,-1.07217 -2.78316,-3.23702 -2.78316,-4.81078 0,-1.57375 -3.23438,-9.27622 -7.1875,-17.11661 -3.95312,-7.84039 -8.11421,-16.60867 -9.24686,-19.48508 -1.74109,-4.42152 -3.24718,-5.82942 -9.74473,-9.10937 -4.22694,-2.13376 -8.00104,-4.70221 -8.38686,-5.70768 -1.1218,-2.92336 -4.19264,-2.18095 -3.85681,0.93243 0.2212,2.05076 -0.82714,3.32093 -4.07724,4.93996 -5.76454,2.87161 -7.07288,2.8178 -7.89465,-0.32467 -0.59716,-2.28353 -1.30738,-2.51922 -5.47144,-1.8157 -3.8216,0.64566 -5.3384,0.29308 -7.5323,-1.75084 -3.87461,-3.60976 -9.1633,-3.30609 -35.0103,2.01029 -25.16581,5.17625 -30.96631,5.72832 -30.96631,2.94725 0,-2.49434 4.7948,-4.63962 21.21231,-9.49073 26.43098,-7.80994 32.77647,-9.04251 76.28769,-14.81841 62.98699,-8.3612 77.7023,-9.76351 90.52479,-8.62666 11.77086,1.04361 15.1294,2.72742 10.44288,5.23557 -1.27008,0.67973 -11.56988,1.87925 -22.88846,2.66561 -11.31856,0.78637 -27.61046,2.4952 -36.20421,3.79744 -8.59375,1.30223 -18.57813,2.72482 -22.1875,3.16131 -3.60937,0.43649 -6.5625,1.35613 -6.5625,2.04363 0,0.78144 2.34507,0.92746 6.2561,0.38956 5.41767,-0.74512 6.1536,-0.59332 5.49126,1.1327 -0.64896,1.69118 0.43903,2.00405 7.1814,2.0652 l 7.94624,0.072 -8.41209,2.1942 c -15.08391,3.93448 -13.22017,5.80682 5.70373,5.7301 9.75248,-0.0395 16.32261,-0.75116 21.80477,-2.36173 9.21801,-2.7081 10.45688,-3.97552 5.6663,-5.79692 -2.81042,-1.06855 -3.13304,-1.54803 -1.61364,-2.39836 3.78239,-2.11679 26.63647,-4.201 33.07635,-3.01644 l 6.22542,1.14511 1.99425,10.61747 c 1.5416,8.20752 3.65064,13.73842 9.29177,24.36746 4.01364,7.5625 8.61167,15.34004 10.21784,17.28341 4.92748,5.96198 4.01564,7.33568 -4.2672,6.42865 -4.53341,-0.49645 -12.0341,0.002 -20.3125,1.35043 -23.36711,3.80552 -22.5,3.80406 -22.5,0.0381 0,-4.67963 -9.52656,-19.3092 -13.16924,-20.22345 -3.733,-0.93692 -5.10598,-0.064 -6.09455,3.87473 -0.53216,2.12031 0.004,4.27013 1.64044,6.57431 1.33715,1.88307 2.79539,5.75686 3.24054,8.60844 l 0.80936,5.18466 -9.15077,1.42081 c -5.03293,0.78145 -10.85148,1.68431 -12.93012,2.00635 -2.26448,0.35084 -4.89491,-0.19582 -6.5625,-1.36386 z m 116.34145,-2.29972 c -0.54979,-0.95813 -3.77015,-3.36348 -7.15635,-5.34521 -3.3862,-1.98172 -6.3862,-4.29154 -6.66666,-5.13292 -0.66041,-1.98123 4.46456,-1.93179 7.98123,0.077 3.21695,1.83759 9.21717,8.84291 9.21717,10.76115 0,1.9512 -2.18279,1.71839 -3.37539,-0.36003 z m -192.74456,-4.00211 -2.65806,-3.05703 3.22085,-1.22457 c 3.88975,-1.47888 8.39771,0.48487 7.82007,3.40657 -0.21335,1.07913 -1.58871,2.40533 -3.05635,2.94708 -2.03114,0.74975 -3.30326,0.25489 -5.32651,-2.07205 z"
         id="path4169"
         inkscape:connector-curvature="0" />
    </g>
  </g>
</svg>
